<svg width="74" height="22" viewBox="0 0 74 22" fill="none" xmlns="http://www.w3.org/2000/svg">
<path d="M0.416904 6.2297H1.68577V7.94268H1.72807C1.92545 7.60431 2.17217 7.31529 2.46824 7.07562C2.76431 6.82184 3.08153 6.61741 3.4199 6.46233C3.77236 6.29315 4.13892 6.17331 4.51958 6.10282C4.90024 6.01822 5.27386 5.97593 5.64042 5.97593C6.38764 5.97593 7.07142 6.10282 7.69176 6.35659C8.32619 6.61036 8.86899 6.96988 9.32014 7.43513C9.78539 7.88628 10.1449 8.42908 10.3987 9.06351C10.6525 9.68385 10.7793 10.3676 10.7793 11.1149C10.7793 11.8621 10.6525 12.5529 10.3987 13.1873C10.1449 13.8077 9.78539 14.3505 9.32014 14.8157C8.86899 15.2669 8.32619 15.6193 7.69176 15.8731C7.07142 16.1269 6.38764 16.2538 5.64042 16.2538C5.27386 16.2538 4.90024 16.2115 4.51958 16.1269C4.13892 16.0564 3.77236 15.9436 3.4199 15.7885C3.08153 15.6193 2.76431 15.4149 2.46824 15.1752C2.17217 14.9215 1.92545 14.6254 1.72807 14.287H1.68577V20.8217H0.416904V6.2297ZM1.55889 11.1149C1.55889 11.6647 1.66463 12.1863 1.8761 12.6798C2.08758 13.1591 2.3766 13.5821 2.74317 13.9487C3.10973 14.3011 3.53973 14.5831 4.03318 14.7946C4.52663 15.0061 5.06238 15.1118 5.64042 15.1118C6.23256 15.1118 6.7683 15.0061 7.24765 14.7946C7.727 14.5831 8.13586 14.3011 8.47423 13.9487C8.81259 13.5821 9.06637 13.1591 9.23555 12.6798C9.41883 12.1863 9.51047 11.6647 9.51047 11.1149C9.51047 10.565 9.41883 10.0504 9.23555 9.57106C9.06637 9.07761 8.81259 8.65465 8.47423 8.30219C8.13586 7.93563 7.727 7.64661 7.24765 7.43513C6.7683 7.22365 6.23256 7.11791 5.64042 7.11791C5.06238 7.11791 4.52663 7.22365 4.03318 7.43513C3.53973 7.64661 3.10973 7.93563 2.74317 8.30219C2.3766 8.65465 2.08758 9.07761 1.8761 9.57106C1.66463 10.0504 1.55889 10.565 1.55889 11.1149ZM21.2122 11.8973C21.2122 12.3767 21.2122 12.8067 21.2122 13.1873C21.2263 13.568 21.2404 13.9205 21.2545 14.2447C21.2686 14.569 21.2827 14.8721 21.2967 15.1541C21.3249 15.4361 21.3602 15.718 21.4025 16H20.2182C20.1336 15.5206 20.0913 14.992 20.0913 14.4139H20.049C19.6825 15.0483 19.2243 15.5136 18.6744 15.8097C18.1387 16.1057 17.4549 16.2538 16.6231 16.2538C16.2001 16.2538 15.7842 16.1974 15.3754 16.0846C14.9665 15.9859 14.5999 15.8238 14.2757 15.5982C13.9514 15.3585 13.6835 15.0554 13.4721 14.6888C13.2747 14.3223 13.176 13.8782 13.176 13.3565C13.176 12.6093 13.3663 12.0172 13.747 11.5801C14.1276 11.143 14.5929 10.8188 15.1427 10.6073C15.7067 10.3817 16.2988 10.2407 16.9191 10.1843C17.5536 10.1139 18.1105 10.0786 18.5898 10.0786H20.0702V9.48647C20.0702 8.64056 19.8094 8.03432 19.2877 7.66776C18.7661 7.30119 18.1105 7.11791 17.321 7.11791C16.1931 7.11791 15.1991 7.48447 14.3391 8.2176L13.5989 7.35054C14.0642 6.89938 14.6422 6.56102 15.3331 6.33544C16.0239 6.09577 16.6865 5.97593 17.321 5.97593C18.5052 5.97593 19.4498 6.2579 20.1548 6.82184C20.8597 7.37169 21.2122 8.26694 21.2122 9.50762V11.8973ZM18.6744 11.0937C18.1387 11.0937 17.617 11.129 17.1095 11.1994C16.616 11.2699 16.1649 11.3898 15.756 11.559C15.3613 11.7281 15.044 11.9537 14.8044 12.2357C14.5647 12.5177 14.4449 12.8701 14.4449 13.2931C14.4449 13.5891 14.5083 13.857 14.6352 14.0967C14.7762 14.3223 14.9524 14.5126 15.1639 14.6677C15.3754 14.8087 15.608 14.9215 15.8618 15.0061C16.1296 15.0765 16.3975 15.1118 16.6654 15.1118C17.3421 15.1118 17.899 15.0131 18.3361 14.8157C18.7731 14.6183 19.1185 14.3646 19.3723 14.0544C19.6402 13.7301 19.8235 13.3706 19.9221 12.9759C20.0208 12.567 20.0702 12.1581 20.0702 11.7493V11.0937H18.6744ZM27.3356 19.0241C27.0959 19.6586 26.7646 20.1591 26.3417 20.5256C25.9187 20.8922 25.3548 21.0755 24.6498 21.0755C24.4384 21.0755 24.2269 21.0543 24.0154 21.012C23.8039 20.9838 23.5995 20.9415 23.4021 20.8851L23.529 19.7009C23.7123 19.7573 23.8956 19.8066 24.0788 19.8489C24.2762 19.9053 24.4736 19.9335 24.671 19.9335C24.8966 19.9335 25.0939 19.8842 25.2631 19.7855C25.4464 19.6868 25.6015 19.5599 25.7284 19.4048C25.8553 19.2497 25.961 19.0735 26.0456 18.8761C26.1443 18.6928 26.2289 18.5025 26.2994 18.3051L27.1876 16.0423L23.2118 6.2297H24.6287L27.8643 14.4562L31.0153 6.2297H32.3688L27.3356 19.0241ZM46.8907 8.97892C46.8907 8.79564 46.8837 8.57711 46.8696 8.32334C46.8555 8.05547 46.8414 7.78759 46.8273 7.51972C46.8273 7.25185 46.8202 7.00512 46.8061 6.77955C46.792 6.53987 46.785 6.35659 46.785 6.2297H48.0539C48.068 6.59627 48.075 6.94873 48.075 7.28709C48.0891 7.62546 48.1103 7.84399 48.1385 7.94268H48.2019C48.4557 7.40693 48.8786 6.94873 49.4708 6.56807C50.0629 6.17331 50.7537 5.97593 51.5433 5.97593C52.1918 5.97593 52.7839 6.14511 53.3197 6.48348C53.8554 6.80774 54.2431 7.34349 54.4828 8.09071C54.793 7.35759 55.2512 6.82184 55.8574 6.48348C56.4778 6.14511 57.1263 5.97593 57.803 5.97593C58.5643 5.97593 59.1847 6.09577 59.664 6.33544C60.1434 6.57512 60.517 6.89234 60.7849 7.28709C61.0668 7.66776 61.2572 8.11186 61.3559 8.61941C61.4686 9.12696 61.525 9.6486 61.525 10.1843V16H60.2562V10.2478C60.2562 9.85303 60.2209 9.47237 60.1504 9.10581C60.0799 8.72515 59.953 8.38678 59.7698 8.09071C59.6006 7.79464 59.3539 7.56202 59.0296 7.39283C58.7194 7.20955 58.3106 7.11791 57.803 7.11791C57.2109 7.11791 56.7245 7.2307 56.3438 7.45628C55.9632 7.66776 55.66 7.94268 55.4345 8.28104C55.223 8.61941 55.0679 8.98597 54.9692 9.38073C54.8846 9.77549 54.8423 10.1491 54.8423 10.5016V16H53.5735V10.1209C53.5735 9.2186 53.4043 8.49252 53.0659 7.94268C52.7416 7.39283 52.2341 7.11791 51.5433 7.11791C51.078 7.11791 50.6339 7.2025 50.2109 7.37169C49.8021 7.52677 49.4426 7.77349 49.1324 8.11186C48.8363 8.43613 48.5967 8.85203 48.4134 9.35958C48.2442 9.85303 48.1596 10.4381 48.1596 11.1149V16H46.8907V8.97892ZM73.5278 14.1601C73.0343 14.9074 72.421 15.4431 71.6879 15.7674C70.9689 16.0916 70.1723 16.2538 69.2982 16.2538C68.551 16.2538 67.8742 16.1269 67.268 15.8731C66.6618 15.6193 66.1401 15.2669 65.7031 14.8157C65.266 14.3505 64.9276 13.8077 64.688 13.1873C64.4624 12.5529 64.3496 11.855 64.3496 11.0937C64.3496 10.3606 64.4694 9.68385 64.7091 9.06351C64.9488 8.44318 65.2871 7.90743 65.7242 7.45628C66.1613 6.99103 66.6759 6.63151 67.268 6.37774C67.8601 6.10987 68.5157 5.97593 69.2347 5.97593C69.982 5.97593 70.6375 6.10987 71.2015 6.37774C71.7795 6.63151 72.2589 6.97693 72.6395 7.41398C73.0343 7.83694 73.3304 8.32334 73.5278 8.87318C73.7251 9.42303 73.8238 9.97992 73.8238 10.5439V11.4321H65.6185C65.6185 11.6999 65.6678 12.0454 65.7665 12.4683C65.8793 12.8772 66.0767 13.279 66.3586 13.6737C66.6406 14.0685 67.0142 14.4069 67.4795 14.6888C67.9588 14.9708 68.5721 15.1118 69.3193 15.1118C69.9679 15.1118 70.5953 14.9567 71.2015 14.6465C71.8077 14.3364 72.273 13.9134 72.5972 13.3777L73.5278 14.1601ZM72.555 10.2901C72.555 9.85303 72.4633 9.44417 72.28 9.06351C72.1108 8.68285 71.8712 8.35154 71.561 8.06956C71.2649 7.77349 70.9054 7.54087 70.4825 7.37169C70.0736 7.2025 69.6366 7.11791 69.1713 7.11791C68.4805 7.11791 67.9024 7.2589 67.4372 7.54087C66.986 7.82284 66.6265 8.14711 66.3586 8.51367C66.0908 8.88023 65.9004 9.23974 65.7876 9.59221C65.6749 9.93057 65.6185 10.1632 65.6185 10.2901H72.555Z" fill="#fff"/>
<path d="M33.9314 13.3142L39.7471 7.6889C39.9163 7.51972 40.0925 7.34349 40.2758 7.16021C40.459 6.96283 40.6212 6.7584 40.7622 6.54692C40.9173 6.33544 41.0441 6.11692 41.1428 5.89134C41.2415 5.65166 41.2909 5.40494 41.2909 5.15116C41.2909 4.841 41.2274 4.56607 41.1005 4.3264C40.9877 4.08672 40.8327 3.88229 40.6353 3.71311C40.4379 3.54393 40.2053 3.41704 39.9374 3.33245C39.6836 3.23376 39.4087 3.18442 39.1126 3.18442C38.4782 3.18442 37.9566 3.3677 37.5477 3.73426C37.1388 4.10082 36.8921 4.59427 36.8075 5.21461L34.1429 5.00313C34.1993 4.3123 34.3614 3.70606 34.6293 3.18442C34.9113 2.64867 35.2708 2.20457 35.7078 1.8521C36.1449 1.49964 36.6524 1.23177 37.2305 1.04849C37.8085 0.865205 38.4359 0.773564 39.1126 0.773564C39.7894 0.773564 40.4168 0.865205 40.9948 1.04849C41.5869 1.21767 42.1015 1.47849 42.5386 1.83096C42.9756 2.16932 43.3211 2.60638 43.5748 3.14212C43.8286 3.67787 43.9555 4.30525 43.9555 5.02428C43.9555 5.96888 43.737 6.7866 43.2999 7.47743C42.877 8.15416 42.3271 8.80269 41.6504 9.42303L37.019 13.716H43.9555V16H33.9314V13.3142Z" fill="#fff"/>
</svg>
